<svg width="99" height="119" viewBox="0 0 99 119" fill="none" xmlns="http://www.w3.org/2000/svg">
<path d="M81.3339 74.6765C79.6221 72.9622 77.3488 72.0171 74.9333 72.0171C72.5244 72.0171 70.2607 72.9574 68.5585 74.6614C65.0417 78.1836 65.0502 83.9219 68.5717 87.4537C70.2823 89.1667 72.555 90.1118 74.9723 90.1118C76.1768 90.1118 77.3446 89.8776 78.4248 89.4291C79.505 88.9818 80.4963 88.3207 81.3477 87.4675C84.8615 83.9453 84.8554 78.207 81.3339 74.6765ZM78.6265 84.7517C77.6526 85.7304 76.3533 86.2678 74.9723 86.2678C73.5829 86.2678 72.2764 85.7244 71.2923 84.7385C69.264 82.7048 69.258 79.4019 71.2791 77.3772C72.253 76.4003 73.5523 75.8599 74.9333 75.8599C76.3227 75.8599 77.6292 76.4045 78.6133 77.3898C79.6293 78.4093 80.1384 79.7483 80.1384 81.0837C80.1384 82.413 79.6353 83.7418 78.6265 84.7517ZM81.3339 74.6765C79.6221 72.9622 77.3488 72.0171 74.9333 72.0171C72.5244 72.0171 70.2607 72.9574 68.5585 74.6614C65.0417 78.1836 65.0502 83.9219 68.5717 87.4537C70.2823 89.1667 72.555 90.1118 74.9723 90.1118C76.1768 90.1118 77.3446 89.8776 78.4248 89.4291C79.505 88.9818 80.4963 88.3207 81.3477 87.4675C84.8615 83.9453 84.8554 78.207 81.3339 74.6765ZM78.6265 84.7517C77.6526 85.7304 76.3533 86.2678 74.9723 86.2678C73.5829 86.2678 72.2764 85.7244 71.2923 84.7385C69.264 82.7048 69.258 79.4019 71.2791 77.3772C72.253 76.4003 73.5523 75.8599 74.9333 75.8599C76.3227 75.8599 77.6292 76.4045 78.6133 77.3898C79.6293 78.4093 80.1384 79.7483 80.1384 81.0837C80.1384 82.413 79.6353 83.7418 78.6265 84.7517ZM81.3339 74.6765C79.6221 72.9622 77.3488 72.0171 74.9333 72.0171C72.5244 72.0171 70.2607 72.9574 68.5585 74.6614C65.0417 78.1836 65.0502 83.9219 68.5717 87.4537C70.2823 89.1667 72.555 90.1118 74.9723 90.1118C76.1768 90.1118 77.3446 89.8776 78.4248 89.4291C79.505 88.9818 80.4963 88.3207 81.3477 87.4675C84.8615 83.9453 84.8554 78.207 81.3339 74.6765ZM78.6265 84.7517C77.6526 85.7304 76.3533 86.2678 74.9723 86.2678C73.5829 86.2678 72.2764 85.7244 71.2923 84.7385C69.264 82.7048 69.258 79.4019 71.2791 77.3772C72.253 76.4003 73.5523 75.8599 74.9333 75.8599C76.3227 75.8599 77.6292 76.4045 78.6133 77.3898C79.6293 78.4093 80.1384 79.7483 80.1384 81.0837C80.1384 82.413 79.6353 83.7418 78.6265 84.7517ZM81.3339 74.6765C79.6221 72.9622 77.3488 72.0171 74.9333 72.0171C72.5244 72.0171 70.2607 72.9574 68.5585 74.6614C65.0417 78.1836 65.0502 83.9219 68.5717 87.4537C70.2823 89.1667 72.555 90.1118 74.9723 90.1118C76.1768 90.1118 77.3446 89.8776 78.4248 89.4291C79.505 88.9818 80.4963 88.3207 81.3477 87.4675C84.8615 83.9453 84.8554 78.207 81.3339 74.6765ZM78.6265 84.7517C77.6526 85.7304 76.3533 86.2678 74.9723 86.2678C73.5829 86.2678 72.2764 85.7244 71.2923 84.7385C69.264 82.7048 69.258 79.4019 71.2791 77.3772C72.253 76.4003 73.5523 75.8599 74.9333 75.8599C76.3227 75.8599 77.6292 76.4045 78.6133 77.3898C79.6293 78.4093 80.1384 79.7483 80.1384 81.0837C80.1384 82.413 79.6353 83.7418 78.6265 84.7517Z" fill="white"/>
<path d="M29.8155 74.6614C28.1133 72.9574 25.8503 72.0171 23.4401 72.0171C22.2339 72.0171 21.0618 72.2537 19.9762 72.7052C18.8925 73.1544 17.8951 73.8196 17.0401 74.6765C13.5186 78.207 13.5126 83.9453 17.0269 87.4675C18.7291 89.1727 20.9928 90.1118 23.4017 90.1118C25.8197 90.1118 28.0923 89.1667 29.8023 87.4537C33.3239 83.9219 33.3317 78.1836 29.8155 74.6614ZM27.0818 84.7385C26.0977 85.7244 24.7911 86.2678 23.4017 86.2678C22.0207 86.2678 20.722 85.7304 19.7475 84.7517C17.7264 82.7271 17.7324 79.4229 19.7613 77.3898C20.7448 76.4045 22.0507 75.8599 23.4401 75.8599C24.8217 75.8599 26.1211 76.4003 27.0944 77.3772C29.1166 79.4019 29.1106 82.7048 27.0818 84.7385ZM29.8155 74.6614C28.1133 72.9574 25.8503 72.0171 23.4401 72.0171C22.2339 72.0171 21.0618 72.2537 19.9762 72.7052C18.8925 73.1544 17.8951 73.8196 17.0401 74.6765C13.5186 78.207 13.5126 83.9453 17.0269 87.4675C18.7291 89.1727 20.9928 90.1118 23.4017 90.1118C25.8197 90.1118 28.0923 89.1667 29.8023 87.4537C33.3239 83.9219 33.3317 78.1836 29.8155 74.6614ZM27.0818 84.7385C26.0977 85.7244 24.7911 86.2678 23.4017 86.2678C22.0207 86.2678 20.722 85.7304 19.7475 84.7517C17.7264 82.7271 17.7324 79.4229 19.7613 77.3898C20.7448 76.4045 22.0507 75.8599 23.4401 75.8599C24.8217 75.8599 26.1211 76.4003 27.0944 77.3772C29.1166 79.4019 29.1106 82.7048 27.0818 84.7385ZM29.8155 74.6614C28.1133 72.9574 25.8503 72.0171 23.4401 72.0171C22.2339 72.0171 21.0618 72.2537 19.9762 72.7052C18.8925 73.1544 17.8951 73.8196 17.0401 74.6765C13.5186 78.207 13.5126 83.9453 17.0269 87.4675C18.7291 89.1727 20.9928 90.1118 23.4017 90.1118C25.8197 90.1118 28.0923 89.1667 29.8023 87.4537C33.3239 83.9219 33.3317 78.1836 29.8155 74.6614ZM27.0818 84.7385C26.0977 85.7244 24.7911 86.2678 23.4017 86.2678C22.0207 86.2678 20.722 85.7304 19.7475 84.7517C17.7264 82.7271 17.7324 79.4229 19.7613 77.3898C20.7448 76.4045 22.0507 75.8599 23.4401 75.8599C24.8217 75.8599 26.1211 76.4003 27.0944 77.3772C29.1166 79.4019 29.1106 82.7048 27.0818 84.7385Z" fill="white"/>
<path d="M97.8134 28.308C95.1853 25.6757 91.5533 24.2227 87.588 24.2227H87.5862C82.8686 24.2227 78.121 26.2677 74.5646 29.8301L49.1867 55.2506L23.8094 29.8301C20.2525 26.2677 15.5072 24.2227 10.7884 24.2227H10.786C6.82017 24.2227 3.18935 25.6757 0.560654 28.308C-0.186885 29.0598 -0.186885 30.2744 0.560654 31.0238L40.6366 71.1777L38.7716 73.0475C37.9604 71.4845 36.9115 70.0471 35.6668 68.7982C34.0384 67.1668 32.1404 65.9023 30.0725 65.0449C28.0058 64.1875 25.7692 63.7384 23.4636 63.7384C21.1501 63.7384 18.9063 64.1899 16.8288 65.0533C14.7519 65.9155 12.8461 67.1879 11.2069 68.8288C4.45746 75.5915 4.44425 86.5836 11.1763 93.3307C14.5315 96.6937 18.9519 98.3749 23.3771 98.3749C27.6966 98.3749 32.0209 96.7724 35.3624 93.5649C35.4416 93.5066 35.5143 93.4442 35.5839 93.3745L49.1867 79.7423L62.7901 93.3745C62.858 93.4418 62.9306 93.5054 63.0057 93.5607C66.3489 96.7706 70.6738 98.3749 74.9969 98.3749C79.4221 98.3749 83.8431 96.6913 87.1977 93.3307C93.9304 86.5836 93.9166 75.5915 87.1671 68.8288C83.8911 65.5469 79.5392 63.7384 74.9111 63.7384C72.6054 63.7384 70.3688 64.1875 68.3009 65.0449C66.2336 65.9023 64.335 67.1668 62.7079 68.7982C61.4626 70.0471 60.4136 71.4845 59.603 73.0475L57.7369 71.1777L97.8134 31.0238C98.5609 30.2744 98.5609 29.0598 97.8134 28.308ZM40.1682 65.2665L4.77209 29.8031C6.47672 28.6737 8.55302 28.0666 10.786 28.0666H10.7884C14.4925 28.0666 18.2488 29.6998 21.0901 32.5459L46.4722 57.9694L41.4748 62.9758C40.8347 63.6159 40.4084 64.4072 40.1682 65.2665ZM46.4722 77.0229L33.0507 90.4732C32.984 90.5225 32.9204 90.5789 32.8585 90.6402C30.2365 93.2364 26.8062 94.5334 23.3771 94.5334C19.9372 94.5334 16.5021 93.2268 13.8969 90.6149C8.65749 85.3648 8.6713 76.8098 13.9257 71.5446C16.4775 68.9885 19.8634 67.5817 23.4636 67.5817C27.0488 67.5817 30.4148 68.9771 32.9456 71.514C34.4965 73.0679 35.6127 74.9166 36.2618 77.0115C36.4611 77.6546 36.9823 78.147 37.6374 78.3085C38.2913 78.4682 38.9812 78.276 39.4573 77.7993L43.3523 73.8965L43.3613 73.8869L46.4818 77.0139L46.4722 77.0229ZM58.9167 77.7993C59.3935 78.276 60.0834 78.4682 60.7366 78.3085C61.3911 78.147 61.9123 77.6546 62.1116 77.0115C62.4371 75.9638 62.879 74.9785 63.432 74.0598C63.985 73.1411 64.6539 72.2897 65.4284 71.514C67.9593 68.9771 71.3253 67.5817 74.9111 67.5817C78.5113 67.5817 81.8971 68.9885 84.4477 71.5446C89.7033 76.8098 89.7165 85.3648 84.4772 90.6149C79.272 95.8303 70.7663 95.8417 65.5149 90.6402C65.4555 90.5807 65.3918 90.5249 65.3252 90.4744L51.9025 77.0229L51.8923 77.0139L55.0127 73.8869L55.0223 73.8965L58.9167 77.7993ZM49.1963 74.2922L49.1867 74.2826L49.1777 74.2922L44.549 69.6556C44.6084 69.7037 44.6661 69.7529 44.7219 69.8093C43.6477 68.731 43.4862 66.3983 44.1935 65.691L77.2834 32.5459C80.1246 29.6998 83.8797 28.0654 87.5862 28.0654H87.588C89.8204 28.0654 91.8979 28.6731 93.6013 29.8031L49.1963 74.2922Z" fill="white"/>
<path d="M49.1777 50.5336C48.1168 50.5336 47.2563 49.6732 47.2563 48.6117V9.60753C47.2563 8.54536 48.1168 7.68554 49.1777 7.68554C50.2393 7.68554 51.0991 8.54536 51.0991 9.60753V48.6117C51.0991 49.6738 50.2393 50.5336 49.1777 50.5336Z" fill="white"/>
<path d="M49.1813 3.84337C48.1203 3.84337 47.2593 2.98295 47.2593 1.92139C47.2593 0.85982 48.1179 0 49.1795 0H49.1813C50.2429 0 51.1027 0.85982 51.1027 1.92199C51.1027 2.98355 50.2429 3.84337 49.1813 3.84337Z" fill="white"/>
<path d="M26.74 118V110.9H28.12V118H26.74Z" fill="white"/>
<path d="M30.4413 115.86V114.65H33.4713V115.86H30.4413Z" fill="white"/>
<path d="M40.3781 112.11H38.1081V118H36.7381V112.11H34.4681V110.9H40.3781V112.11Z" fill="white"/>
<path d="M43.5764 110.9H44.7964L47.4964 118H46.0764L45.4164 116.23H42.9364L42.2864 118H40.8664L43.5764 110.9ZM45.1664 115.26L44.1864 112.47L43.1664 115.26H45.1664Z" fill="white"/>
<path d="M49.2752 118V110.9H50.6552V118H49.2752Z" fill="white"/>
<path d="M53.1365 118V110.9H54.5165V116.79H58.1365V118H53.1365Z" fill="white"/>
<path d="M62.5571 118.05C62.0371 118.05 61.5638 117.95 61.1371 117.75C60.7171 117.543 60.3538 117.273 60.0471 116.94C59.7471 116.6 59.5138 116.213 59.3471 115.78C59.1804 115.347 59.0971 114.903 59.0971 114.45C59.0971 113.977 59.1838 113.523 59.3571 113.09C59.5371 112.657 59.7804 112.273 60.0871 111.94C60.4004 111.607 60.7704 111.343 61.1971 111.15C61.6238 110.95 62.0871 110.85 62.5871 110.85C63.1004 110.85 63.5671 110.957 63.9871 111.17C64.4138 111.377 64.7771 111.65 65.0771 111.99C65.3771 112.33 65.6104 112.717 65.7771 113.15C65.9438 113.583 66.0271 114.023 66.0271 114.47C66.0271 114.943 65.9404 115.397 65.7671 115.83C65.5938 116.257 65.3538 116.637 65.0471 116.97C64.7404 117.297 64.3738 117.56 63.9471 117.76C63.5204 117.953 63.0571 118.05 62.5571 118.05ZM60.4971 114.45C60.4971 114.757 60.5438 115.053 60.6371 115.34C60.7304 115.627 60.8638 115.88 61.0371 116.1C61.2171 116.32 61.4338 116.497 61.6871 116.63C61.9471 116.763 62.2404 116.83 62.5671 116.83C62.9004 116.83 63.1938 116.763 63.4471 116.63C63.7071 116.49 63.9238 116.307 64.0971 116.08C64.2771 115.853 64.4104 115.6 64.4971 115.32C64.5904 115.033 64.6371 114.743 64.6371 114.45C64.6371 114.143 64.5871 113.847 64.4871 113.56C64.3938 113.273 64.2571 113.02 64.0771 112.8C63.9038 112.58 63.6871 112.407 63.4271 112.28C63.1738 112.147 62.8871 112.08 62.5671 112.08C62.2338 112.08 61.9371 112.15 61.6771 112.29C61.4171 112.423 61.2004 112.603 61.0271 112.83C60.8538 113.05 60.7204 113.303 60.6271 113.59C60.5404 113.87 60.4971 114.157 60.4971 114.45Z" fill="white"/>
<path d="M68.0857 118V110.9H71.2257C71.5524 110.9 71.8524 110.97 72.1257 111.11C72.4057 111.243 72.6457 111.423 72.8457 111.65C73.0457 111.87 73.2024 112.123 73.3157 112.41C73.429 112.69 73.4857 112.973 73.4857 113.26C73.4857 113.72 73.369 114.14 73.1357 114.52C72.909 114.893 72.599 115.163 72.2057 115.33L73.8257 118H72.2757L70.8257 115.62H69.4657V118H68.0857ZM69.4657 114.41H71.1957C71.3224 114.41 71.439 114.38 71.5457 114.32C71.659 114.26 71.7557 114.18 71.8357 114.08C71.9157 113.973 71.979 113.85 72.0257 113.71C72.0724 113.57 72.0957 113.42 72.0957 113.26C72.0957 113.093 72.069 112.94 72.0157 112.8C71.9624 112.66 71.889 112.54 71.7957 112.44C71.709 112.333 71.6057 112.253 71.4857 112.2C71.3724 112.14 71.2557 112.11 71.1357 112.11H69.4657V114.41Z" fill="white"/>
</svg>
